<svg xmlns="http://www.w3.org/2000/svg" version="1.1" xmlnsXlink="http://www.w3.org/1999/xlink" xmlnsSvgjs="http://svgjs.dev/svgjs" width="1000" height="1000" viewBox="0 0 1000 1000"><rect width="1000" height="1000" fill="#ffffff"></rect><g transform="matrix(0.7,0,0,0.7,150.0000000000001,106.25)"><svg viewBox="0 0 320 360" data-background-color="#ffffff" preserveAspectRatio="xMidYMid meet" height="1125" width="1000" xmlns="http://www.w3.org/2000/svg" xmlnsXlink="http://www.w3.org/1999/xlink"><defs></defs><g id="tight-bounds" transform="matrix(1,0,0,1,-5.684341886080802e-14,0)"><svg viewBox="0 0 320 360" height="360" width="320"><g><svg></svg></g><g><svg viewBox="0 0 320 360" height="360" width="320"><g><path d="M85.508 32.884c0-1.117 0.558-2.233 1.675-2.233 1.117 0 2.233 0.558 2.234 2.233 0.558 0 1.675 0 2.233-0.558 2.233 0 4.467-0.558 6.141 0 1.675 0.558 2.792 0.558 4.467 1.117 1.675 0.558 2.792 0 3.908-0.559 2.233-0.558 3.908-1.675 6.141-2.233 1.117-0.558 1.675-0.558 2.792-0.558 1.117-0.558 2.233-0.558 3.908-1.117 2.792-0.558 5.583-1.117 7.817-2.233 2.233-1.117 4.467-1.117 6.699-1.675 1.117 0 1.675-0.558 2.792-1.117 0.558 0 0.558-0.558 1.116-1.116 1.117-0.558 1.675-1.117 2.792-0.559 0.558 0.558 1.675 0.558 2.233 0h0.559c3.35 0 6.7-0.558 10.608 0 0.558 0 1.117 0 1.116 0 1.675-1.117 3.908-1.117 6.142-1.116 0.558 0 1.675 0 2.233 0h0.558c2.233 0 4.467 0 6.142 0.558 1.675 0 2.792 0.558 4.466 1.117 1.675 0 2.792 0 4.467 0.558 1.117 0 2.233 0 3.35 0 0.558 0 1.117 0 1.116 0 2.233 0.558 4.467 0.558 6.7 0.558 1.675 0.558 3.35 1.117 5.583 1.117 0.558 0 1.117 0 1.675 0 0.558 0 1.117 0.558 1.675 0.558l0.558 0.559c2.233 0 3.908 1.117 6.142 1.116 0.558 0 1.675 0 2.233 0.559 1.675 1.117 3.908 1.675 6.141 1.675 1.117 0 1.675 0.558 2.234 1.116 1.675 0.558 2.792 1.117 4.466 1.675 1.117 0.558 2.233 0 3.35 0.558 1.675 0.558 3.908 1.117 5.583 2.792 1.117 1.117 2.233 1.117 3.908 2.233 0.558 0 1.117 0.558 1.675 1.117 1.675 1.117 3.35 2.233 5.025 2.791 0.558 0 1.117 0.558 1.675 0.559 1.675 1.117 3.35 2.792 5.583 3.908 1.117 0.558 1.675 1.117 2.792 1.675h0.558c1.675 1.675 3.908 2.792 5.583 4.466 1.675 1.675 2.792 2.792 5.025 3.909 0 0 0 0 0 0.558 0.558 1.117 1.117 1.675 2.233 2.233 1.117 0.558 1.675 1.117 2.234 1.675 1.675 1.117 3.35 2.233 4.466 3.35 0.558 0.558 1.117 1.117 2.233 2.233 0.558 0.558 1.117 1.117 1.675 1.117 2.233 0.558 3.35 2.233 5.025 3.908 1.117 1.117 2.792 2.792 3.908 3.908 0.558 0.558 1.117 1.675 1.675 2.792 1.117 3.35 2.792 6.7 4.467 9.491 0 0 0 0.558 0.558 1.117v0.558c1.117 1.117 1.675 2.792 2.792 3.908 0.558 0.558 0.558 1.117 1.116 1.675 1.117 1.675 1.675 3.908 2.792 5.583 1.675 2.792 2.792 5.583 3.908 8.375v0.558c0.558 1.117 1.117 2.233 1.675 3.908 0 1.117 1.117 2.233 1.675 3.909 0.558 2.792 2.233 5.583 2.791 8.933 0 0.558 0.558 1.117 0.559 2.233 0.558 1.675 1.117 3.35 1.675 5.025 0 0.558 0.558 1.117 1.116 1.675 1.117 1.117 1.117 2.233 1.117 3.35-0.558 2.233 0 4.467 0.558 6.699 0 0.558 0 1.117 0 2.234 0.558 2.233 1.117 5.025 1.117 7.258 0 0.558 0 1.675 0 2.233 0 1.675 0.558 3.35 1.675 5.025 0 0.558 0.558 0.558 0.558 0.558 0.558 0.558 1.117 1.675 1.675 2.233 0.558 0.558 0.558 0.558 1.117 1.117 1.117 1.117 1.675 2.233 1.675 3.908 0 0.558-0.558 1.675-0.559 2.233 0 0.558 0 1.675 0.559 2.234 0.558 0.558 0.558 1.117 0.558 1.675 0 0.558-0.558 1.117-1.117 1.116v0c-0.558 1.675-2.792 2.233-3.35 3.908-0.558 2.233-1.117 4.467-1.674 6.7-0.558 1.675-0.558 2.792-0.559 4.467 0 1.675-0.558 2.792-0.558 4.466-0.558 2.233-1.117 4.467-1.675 6.7 0 1.117-0.558 2.233-0.558 3.35 0.558 0.558 1.117 1.117 1.675 1.116 1.117 1.117 2.233 2.233 3.349 3.35 0.558 0.558 0.558 1.117 0 1.117-0.558 0.558-1.117 0.558-1.674 0.558-0.558-0.558-1.675-1.117-2.234-1.116-0.558-0.558-1.675-1.117-2.791-0.559 0 1.117-0.558 2.233-0.559 2.792-0.558 1.117-1.117 2.792-1.116 3.908-0.558 2.233-1.675 3.908-2.233 6.142-1.117 2.792-2.233 5.025-3.35 7.258-0.558 1.117-1.117 2.233-1.675 3.35v0c0 1.675-1.675 3.35-2.234 5.024-1.117 2.233-2.233 4.467-3.349 7.258-0.558 1.117-1.117 2.233-1.675 2.792-1.117 2.792-2.233 5.025-3.909 7.258-1.117 1.675-2.233 2.792-3.349 3.35-1.117 1.117-2.233 2.233-3.35 3.35-0.558 0.558-1.117 1.117-1.675 1.675-0.558 0.558-0.558 0.558-1.117 1.116-1.117 1.675-2.792 2.792-3.908 4.467-1.117 1.117-1.675 2.233-3.35 3.35-1.117 1.117-2.233 2.792-3.908 3.35-0.558 0.558-1.117 1.675-1.675 2.233-0.558 0.558-1.117 1.675-1.675 2.233 0 1.117 0.558 2.233 0.558 2.792 0 1.675-1.675 2.233-2.791 1.116-1.675-1.117-1.675-1.117-3.35 0-1.675 1.117-3.35 2.792-5.583 3.35-0.558 0-0.558 0.558-1.117 0.559-1.117 0.558-1.675 1.675-2.792 2.233-1.117 1.117-2.792 1.675-3.908 2.791-0.558 0.558-1.117 0.558-1.675 1.117-1.675 1.117-3.35 1.675-5.024 3.35-0.558 0.558-1.117 0.558-1.675 1.117 0 0.558 0 0.558 0 1.116 0 1.117-1.117 2.233-2.792 1.675-1.675-0.558-2.792 0-4.466 0-1.675 0.558-3.35 1.675-5.025 2.233-0.558 0-1.117 0.558-1.675 1.117-1.675 1.117-3.35 1.675-5.025 2.233-1.117 0-2.233 1.117-3.35 1.117-0.558 0-1.117 0.558-1.675 0.558h-0.558c-2.233 1.675-4.467 2.792-6.7 4.467-0.558 0-0.558 0.558-1.117 1.116-0.558 1.117-1.117 1.675-2.233 1.675-2.792 0-3.908 2.233-3.35 4.467 0 0.558 0.558 1.117 0.559 1.675 0.558 1.117 0 2.233-0.559 2.791-0.558 0.558-2.233 0.558-2.791-0.558-1.117-1.117-1.675-2.233-2.234-3.908-0.558-1.117-1.675-2.233-2.791-2.792-1.117-0.558-2.233-0.558-3.35 0-0.558 0-0.558 0.558-1.117 0.558-1.117 1.117-2.792 1.675-4.466 1.117-0.558 0-1.675 0-1.675 0.558-0.558 0.558-0.558 1.675 0 2.234 1.117 1.117 0.558 2.233 0.558 3.908 0 2.233-1.675 3.35-3.908 2.233-0.558-0.558-1.117-0.558-1.675-1.117-0.558 0-0.558-0.558-0.558-1.116-0.558-0.558-0.558-1.675-1.117-2.792-1.117 0.558-2.233 0.558-3.35 1.117-0.558 0-1.117 0.558-1.675 0.558-1.675 0-2.233 0-2.791-1.675-0.558-1.675-1.675-1.675-2.792-2.233-2.233-0.558-5.025-0.558-7.258-1.675h-0.558c-2.233-1.675-4.467-1.675-7.258-1.675-1.675 0-3.35 0.558-5.025 0.558-1.675 0-2.792 0.558-3.908 1.675-0.558 0.558-1.117 1.117-1.675 1.117-0.558-0.558-0.558-1.117-1.117-1.675v-0.558c0-0.558-0.558-1.117-1.116-0.559-1.117 0.558-2.233-0.558-3.35-1.116-0.558-0.558-1.675-1.675-1.675-2.792-0.558-0.558-1.117-1.117-1.675-1.116-1.117 0-2.792-0.558-3.908-0.559-0.558 0-1.117 0-1.117-0.558-0.558-0.558-1.117-0.558-2.233-0.558-0.558 0-0.558-0.558-1.117-0.559 1.117 1.117 1.675 2.233 2.233 3.35 0 0.558 0.558 0.558 0.559 1.117 0.558 1.117 0 1.675-1.675 1.675-1.117 0-1.117 0-1.675 0.558 0 1.117 0 1.675 0 2.792 0 0.558 0 1.117-1.117 1.675 0 0-0.558 0-0.558 0.558-0.558 0.558-0.558 1.117 0 1.675 1.675 1.117 2.792 1.675 4.466 2.233 1.675 0 1.675 1.117 2.234 2.233 0.558 1.117 0 1.675-0.559 2.792-1.117 1.117-2.233 2.233-3.35 3.35-1.675 0.558-2.792 2.233-4.466 2.233-1.117 0-2.233-0.558-2.792-1.675-0.558-2.792-0.558-5.025 0.559-7.816 0-0.558 0.558-1.117 0-1.675-5.025 0-5.025-1.117-5.025-1.675 0-1.117 0.558-1.675 0.558-2.792 0.558-1.117 0-1.675-1.675-2.233-0.558 0-1.117 0-1.675 0-0.558 0-0.558-0.558-1.675-0.558 1.117-0.558 1.675-0.558 2.792-1.117-0.558-2.233-1.117-3.908-2.792-5.025-0.558-0.558-1.117-1.117-1.116-2.233 0-1.675-1.117-2.792-1.675-3.908-1.117-1.675-3.35-2.233-5.025-2.233-1.675-0.558-2.792-0.558-4.467-1.117-1.675-0.558-3.35-2.233-5.024-2.792-0.558-0.558-1.117-1.117-2.234-1.674-2.233-1.117-3.908-2.792-5.583-4.467-1.117-0.558-1.675-1.675-2.791-2.233-1.117-1.117-1.675-2.233-2.792-2.792-1.117-1.117-2.233-2.233-3.908-3.35-1.675-1.117-2.792-2.792-4.467-4.466-1.117-1.675-2.792-2.792-4.466-3.908-0.558 0-1.117 0-1.675 0-0.558 0-1.117 0.558-1.675 0.558-1.675 0.558-2.792 1.675-4.467 2.233 0.558-0.558 0.558-0.558 0-1.675-0.558-0.558-1.117-1.117-1.674-1.116-1.117 0-2.233 0-3.35 0-2.233 0-4.467 0.558-6.7 0.558-1.675 0-3.908 0.558-5.583 1.117 0.558 1.117 0.558 1.675 1.116 2.791-1.117 0.558-2.233 0.558-3.35 0.558-0.558 0-1.675 0.558-2.233 1.117-0.558 0-0.558 0.558-1.116 0-1.117-0.558-2.233 0-3.35 0.558h-0.559c0 0 0-0.558 0.559-0.558 0.558-0.558 1.117-1.117 1.675-1.675 0.558-0.558 1.117-0.558 2.233-1.117-0.558-0.558-0.558-1.117-0.558-1.116-0.558-0.558-1.117-0.558-1.675 0-0.558 0.558-1.117 1.117-1.675 1.675-0.558 0.558-1.117 0.558-1.675 0-0.558-0.558-0.558-1.117 0-1.675 0-0.558 0.558-1.117 1.116-1.675 0.558-0.558 0.558-1.117 1.117-1.675-1.117-1.117-1.675-2.233-2.792-2.792-1.675-1.117-3.35-2.792-4.466-4.466-1.117-2.233-2.792-3.908-5.025-5.025-0.558-0.558-1.117-1.117-1.675-1.675-0.558-0.558-0.558-0.558-1.116-1.117-1.675 0.558-2.792 1.675-4.467 2.234-0.558 0-0.558 0.558-1.117 1.116-0.558 1.117-1.675 1.117-2.791 1.117-0.558 0-1.117-0.558-0.558-1.117 0.558-1.117 1.117-2.233 2.791-1.675 0 0 0.558 0 0.558-0.558 1.117-1.117 2.233-2.792 3.909-3.908-0.558-1.675-1.675-2.792-2.234-3.908-0.558-0.558-0.558-1.117-0.558-2.234 0-0.558 0-0.558-0.558-1.116 0 0-0.558 0-1.117 0.558-0.558 0.558-1.675 1.117-2.791 0 0-0.558 0-1.117 0.558-1.675l0.558-0.558c1.675-0.558 1.675-2.233 1.675-3.908v-0.559c-0.558-1.117-0.558-1.675 0.558-2.791 1.675-1.117 3.35-3.35 3.909-5.025 0.558-1.117 1.675-1.675 2.791-2.792 1.117-1.117 2.233-2.233 2.792-3.908h0.558c2.233 0.558 2.792-1.117 3.908-2.791 0-0.558 0-1.117 0.559-1.117 1.117-1.117 1.117-2.233 0.558-3.908 0-0.558-0.558-1.675-0.558-2.233 0-0.558 0-0.558-0.559-1.117-1.675-1.117-1.675-2.233 0-3.35 1.117-0.558 1.117-1.675 1.675-2.233 0.558-1.117 0.558-2.233 0.559-3.908-0.558-1.675-0.558-3.908-1.117-5.583-0.558-2.233-1.117-5.025-1.675-7.259 0-0.558 0-0.558 0-1.116 0-1.675 0-2.792-0.558-4.467-0.558-0.558-0.558-1.675-0.559-2.233-0.558-1.675-1.117-2.792-2.791-3.35-1.675-1.117-3.908-1.675-5.583-2.791-0.558-0.558-1.117 0-1.675 0.558-0.558 1.117-1.675 2.233-2.234 3.35-0.558 0.558-1.117 1.675-1.675 2.791-1.117 1.117-3.35 2.233-5.024 0.559-0.558-1.117-1.117-1.675 0-2.792 1.117-1.675 2.233-3.35 3.908-4.466 0.558-0.558 1.117-1.675 1.675-2.234 0.558-1.117 0.558-2.233 0.558-3.35-0.558-2.233-1.117-4.467-1.117-7.258 0-2.792 0-5.025 0.559-7.816 0.558-1.117 0.558-2.792 1.116-3.908 0-0.558 0.558-1.675 1.117-2.233 1.117-1.117 2.233-2.233 2.792-3.909 0.558-1.675 1.675-3.35 1.675-5.024 0-0.558 0.558-1.117 0.558-1.675 0-0.558 0.558-1.675 0.558-2.234-0.558-1.675 0-2.792 0.558-3.908 0.558-1.117 1.117-2.792 1.675-3.908 1.117-2.233 1.117-5.025 3.35-7.258 0.558-1.117 1.117-2.233 1.675-3.35 0.558-2.233 1.675-3.908 2.792-5.583 0.558-0.558 0.558-0.558 0.558-1.117 0.558-1.675 1.675-3.35 2.792-5.025 1.117-1.675 1.117-3.35 1.675-5.024 0-0.558 0-1.117 0.558-1.675 1.675-1.675 1.117-3.908 0.558-6.142-1.117-2.792-1.675-5.583-1.116-8.374 0-0.558 0-1.117 0.558-1.117 0.558-1.117 0.558-1.675 1.117-2.792v-0.558c1.117-1.117 2.233-2.792 3.908-3.35 2.233-1.117 4.467-1.675 7.258-2.233 2.233 0 4.467-1.117 6.141-3.35 0-0.558 0.558-0.558 1.117-1.117l0.558-0.558c0.558-1.117 1.117-1.675 1.675-2.233 1.117-1.117 2.233-2.792 3.35-3.908 1.117-1.117 2.233-2.792 3.908-4.467l0.559-0.558c1.117-1.117 2.233-2.233 3.349-2.792 1.117-1.117 2.233-2.233 3.35-3.35 1.117-1.117 1.675-2.233 2.792-3.35 1.117-0.558 2.233-1.675 3.35-2.791 1.117-1.117 2.233-2.233 2.791-2.792 1.117-1.117 2.792-2.233 3.909-2.791 1.117-0.558 2.233-1.117 2.791-2.792 0.558-1.675 1.117-2.792 1.675-4.466 0-1.117 0.558-2.233 1.117-3.35 0.558 0 1.117 0 2.233-0.558-0.558-0.558-1.117-0.558-1.117-1.117 0-0.558 0.558-1.117 0.559-1.117 0-0.558 0.558-1.117 0.558-1.675 0 0 0.558 0 0.558-0.558 0 0 0.558 0 0.559-0.558-1.117 0.558-1.675 0-2.234-0.559 0.558 0.558 1.117 0.558 2.234 1.117 0 0 0.558 0 0.558-0.558 0-0.558 0-1.117 0-1.117 0 0-0.558 0-1.117 0-0.558 0-1.117 0.558-1.675 0.558zM182.097 295.292c0-0.558-0.558-0.558-0.559-1.117-0.558-1.117 0-1.675 0.559-2.233 0.558-0.558 1.117-0.558 2.233-0.558 1.117 0.558 1.675 1.117 1.675 2.233 0 0.558 0 1.675 0 2.233 0.558 2.233 0.558 2.233 2.791 2.233 1.117 0 2.233 0 3.35 0 2.233-0.558 4.467-1.675 6.7-2.233 2.233-0.558 4.467-1.117 6.7-1.675 0.558 0 1.117 0 2.233 0 2.233 0.558 3.908 0 5.583-1.117 0.558-0.558 1.675-0.558 2.233-1.116 1.117-0.558 2.233-0.558 3.35-1.117 2.792-1.675 5.583-2.792 7.817-4.466 1.675-1.117 3.35-2.233 5.024-3.35 1.675-1.117 3.35-2.233 5.025-3.35 1.117-0.558 2.792-1.675 3.908-2.792 2.233-1.675 3.908-3.35 6.142-4.466 1.117-0.558 1.675-1.117 2.233-1.675 1.117-0.558 1.675-1.675 2.792-2.233 0.558-0.558 1.117-1.117 2.233-1.675 0.558-0.558 0.558-0.558 0.558-1.117 1.675-1.117 3.35-3.35 4.467-5.025 1.117-1.117 2.233-2.233 3.35-3.908 1.675-1.675 2.792-3.908 4.466-6.141 1.117-1.117 2.233-2.792 2.792-3.909 1.117-2.233 2.233-4.467 3.908-6.141v-0.558c1.117-2.233 2.233-4.467 3.35-6.7 1.675-2.792 2.792-6.141 4.466-8.933 0.558-1.117 1.117-2.233 1.117-3.35 1.117-2.233 1.675-4.467 2.233-6.7 0-0.558 0-0.558 0.559-1.116 1.675-3.35 2.792-6.7 3.349-10.608 0.558-2.233 1.117-4.467 1.675-6.7 1.117-3.35 1.117-6.141 1.675-9.491 0.558-2.233 0.558-5.025 0.559-7.258 0.558-3.35 0.558-7.258 0-10.608 0-2.792-0.558-6.141-0.559-8.933 0-2.792-0.558-5.025-1.116-7.817-0.558-2.792-1.117-5.025-1.675-7.816-1.117-2.233-1.675-4.467-2.234-7.258-0.558-2.233-1.675-3.908-1.674-6.142 0-1.675-0.558-3.35-2.234-3.908-1.675-0.558-2.792-1.117-4.466-2.233-3.35-2.233-5.025-5.025-4.467-8.375 0-1.675 0.558-3.908 1.117-5.583 0.558-1.675 1.117-3.35 0-4.467-0.558-1.675-1.675-2.792-2.233-3.908-1.117-1.675-1.675-2.792-2.792-3.908-1.117-2.233-2.233-4.467-3.908-6.141-2.233-2.792-3.908-5.583-6.7-7.817l-0.558-0.558c-1.675-2.233-3.35-4.467-5.583-6.142-1.117-1.117-2.233-2.233-3.35-2.791-0.558-0.558-1.117-1.117-2.233-1.675-1.675-1.117-3.35-1.675-4.467-2.792-1.675-1.675-3.908-2.792-5.583-3.908 0 0-0.558 0-0.558-0.558-2.233-1.117-3.908-1.675-6.142-2.792-2.233-1.117-4.467-1.675-6.7-1.675-0.558 0-0.558 0-1.116 0-0.558-0.558-1.675-0.558-2.233-0.558-0.558 0-0.558 0-1.117 0-1.117-0.558-2.792 0-3.908 0-2.233 0.558-4.467 0.558-6.7-0.558-2.792-1.117-5.025-2.233-7.258-3.35-1.675-1.117-2.792-2.233-4.467-3.35-3.35-2.792-6.7-6.141-10.608-8.933 0.558-2.792-0.558-3.35-2.791-3.35-1.117 0-2.233 0.558-3.35 1.117-0.558 0.558-0.558 0.558-1.117 1.116-1.675 1.117-2.792 2.792-4.466 3.909-2.792 1.675-3.908 1.117-6.142 0-0.558-0.558-1.117-1.117-1.675-1.675-1.117-1.117-2.233-2.792-2.791-3.909-1.117-2.233-3.35-2.233-5.583-2.233-1.117 0-2.792 0.558-3.908 0.558-2.233 0-4.467 1.117-5.584 2.792-1.117 1.675-2.233 3.35-3.908 5.025-0.558 0.558-1.675 1.117-2.233 2.233-1.117 1.117-2.233 1.117-3.35 0-0.558-0.558-1.117-0.558-1.675-1.117-0.558 0.558-1.117 1.117-1.117 1.675-0.558 1.117-1.117 2.233-1.674 3.909-0.558 1.675-1.675 3.35-2.792 4.466-0.558 0.558-0.558 0.558-1.117 1.117-0.558 1.117-2.233 1.675-3.35 1.675-1.117 1.117-2.233 2.792-2.791 3.908-0.558 1.117-1.117 2.233-1.675 3.908-0.558 0.558-0.558 1.675-1.117 2.233-0.558 1.117-0.558 1.675-0.558 2.792 0.558 1.675-0.558 2.233-2.233 2.791-1.117 0-1.117 0-1.675 1.117 0 1.675 0.558 2.792 1.116 4.467 0.558 0.558 1.117 1.675 1.117 2.233 0 1.117 0.558 1.675 1.675 2.233 0.558 0.558 1.117 1.117 1.675 1.117 0.558 0 0.558 0.558 1.117 0.558 0.558 0.558 1.117 0 1.116-0.558 0.558-1.675 1.117-3.35 1.117-5.025 0.558-2.233 0.558-3.908 1.116-6.142 0.558-1.117 1.117-1.675 1.675-2.233 0 0 0.558 0 1.117 0v0.559c-0.558 2.792-1.675 6.141-2.233 8.933-0.558 1.117-0.558 2.233-1.117 3.349 0 0.558-0.558 1.117-1.116 1.117-1.117 0.558-2.233 1.117-3.35 1.117-0.558 0-1.117 0-1.675 0-1.117-0.558-2.233-1.675-3.35-2.234-0.558-0.558-1.117-1.117-1.675-1.674-0.558-1.117-1.117-2.233-1.675-3.35-0.558-1.117-1.117-1.675-2.233-2.234-0.558-0.558-1.117-0.558-1.675-1.116-1.117-1.117-2.233-1.675-3.908-1.675-0.558 0-1.675 0-2.234 0-0.558 0-1.675 0.558-2.233 1.116-1.117 0.558-1.675 0.558-2.791 0-2.792-1.117-5.583-0.558-8.375 0.559-1.117 0.558-2.233 1.117-3.35 1.116-2.792 0-5.025 0-7.816 0-2.792 0-5.025-0.558-7.817-1.116-1.117 0-2.233 0-3.35 0-2.233 0.558-2.792 2.233-2.233 4.466 0.558 2.233 1.117 5.025 1.117 7.258 0 1.675 0 3.35 0 5.025 0 1.117 0 1.675 0 2.792 0 1.675-0.558 3.35-0.559 5.025-0.558 3.35-2.233 6.141-4.466 8.374-1.675 1.675-3.908 3.35-6.142 3.908-1.117 0.558-2.233 1.117-3.908 1.675-2.792 1.117-5.025 3.35-6.7 6.142-0.558 1.117-1.117 2.233-1.674 3.35-1.117 1.675-1.675 2.792-2.792 4.466-0.558 1.117-1.675 2.233-2.233 3.35-0.558 1.117-1.675 1.675-1.675 2.792-1.117 2.233-1.675 4.467-2.792 6.699-0.558 1.117-0.558 2.792-1.116 3.909-1.117 2.233-1.117 4.467-1.117 7.258 0 0.558 0 1.117 0 2.233 0 2.792-0.558 6.141-0.558 8.933 0 2.792 0 5.583 0.558 8.375 0 1.117 0 2.792 0 3.908 0 2.233 0.558 5.025 0.558 7.258 0 2.233 0 5.025 1.117 7.258v0.558c0.558 2.233 0.558 4.467 1.116 6.7 0 0.558 0 1.117 0.559 1.675 1.117 3.35 1.675 6.141 2.791 9.491 0.558 2.233 1.675 4.467 2.234 6.7 0.558 2.233 2.792 4.467 3.349 7.258v0c1.675 3.35 3.35 6.7 5.584 10.05 0.558 1.117 1.675 2.233 2.233 3.35 1.117 1.675 1.675 3.35 2.791 4.466 0.558 1.117 1.675 2.233 2.234 2.792 0.558 1.117 1.117 2.233 2.233 3.35 1.117 1.117 2.233 2.792 3.35 3.908 1.675 2.792 3.908 5.025 6.141 6.7 1.117 1.117 2.233 1.675 3.35 2.791 0.558 0.558 1.117 0.558 1.117 1.117 0.558 0.558 1.117 1.117 2.233 1.675 4.467 2.233 7.816 5.583 11.725 8.933 1.675 1.675 3.35 3.35 5.583 4.466 2.233 1.675 3.908 3.35 6.7 3.908 0 0 0.558 0 0.558 0.559 1.117 1.117 2.792 1.675 3.908 2.233 2.233 1.117 5.025 2.233 7.258 3.35 0.558 0.558 1.675 0.558 2.233 1.117 1.675 0.558 3.35 1.117 5.025 1.674 1.675 0.558 2.792 1.117 4.467 1.117h0.558c1.117 0.558 1.675 0.558 2.792 0 0.558 0 1.117 0 1.116 0.558 0 0.558 0.558 0.558 1.117 0.559 0.558 0 1.117 0 2.233 0 0.558-0.558 0.558-1.117 1.117-2.234 0.558 0.558 1.117 0.558 1.116 0.559 0.558 1.117 1.675 1.117 2.792 1.116h0.558c1.117 0 1.675 0 2.233-0.558 0-0.558 1.117-0.558 1.675-0.558 1.675 0.558 3.35 0.558 5.025 1.116 1.117 0.558 2.792 0.558 3.35-0.558 0.558-0.558 1.117-1.117 2.233-0.558 1.117 0.558 1.675 0.558 2.792 0 0.558 0 1.117 0 1.117 0 1.675 0.558 2.792 0.558 4.466 1.116 2.233 0.558 2.233 0.558 3.908-1.116 0.558-0.558 1.675-0.558 2.233 0 0.558 1.117 0.558 1.675 0.559 2.791 0.558 0 0.558 0 1.116-0.558 0-1.117 0.558-1.117 1.675-1.675 0.558 0.558 0.558 0.558 1.117 0.558 1.117 1.117 1.675 1.117 2.233-0.558 0-0.558 0-1.117 0.559-1.116 0.558 0 1.117 0.558 1.116 0.558 0.558 1.117 1.675 1.675 2.233 2.791 1.117 1.117 2.792 1.117 3.35 0 0.558-0.558 1.117-0.558 1.675-0.558 0-0.558 0-1.117 0-1.675 1.675 1.117 1.117 1.117 0.559 1.117zM89.417 34.559c1.675 0.558 2.792 0.558 3.349-0.558-1.117 0.558-2.233-0.558-3.349 0.558z" fill="#df5155" data-fill-palette-color="tertiary"></path></g><g transform="matrix(1,0,0,1,71.94914601728644,90)"><svg viewBox="0 0 176.10170796542712 180" height="180" width="176.10170796542712"><g><svg viewBox="0 0 192.95999999999998 197.23147720304254" height="180" width="176.10170796542712"><g><rect width="192.95999999999998" height="4.248275745110409" x="0" y="104.49147076845125" fill="#323660" opacity="1" stroke-width="0" stroke="transparent" fill-opacity="1" class="rect-o-0" data-fill-palette-color="primary" rx="1%" id="o-0" data-palette-color="#323660"></rect></g><g><rect width="192.95999999999998" height="4.248275745110409" x="0" y="114.30031686056482" fill="#323660" opacity="1" stroke-width="0" stroke="transparent" fill-opacity="1" class="rect-o-1" data-fill-palette-color="primary" rx="1%" id="o-1" data-palette-color="#323660"></rect></g><g transform="matrix(1,0,0,1,0.47999999999998977,129.66973329968152)"><svg viewBox="0 0 192 67.56174390336102" height="67.56174390336102" width="192"><g><svg viewBox="0 0 192 67.56174390336102" height="67.56174390336102" width="192"><g><svg viewBox="0 0 192 47.108307045215554" height="47.108307045215554" width="192"><g transform="matrix(1,0,0,1,0,0)"><svg width="192" viewBox="1.149999976158142 -35 142.63999938964844 35" height="47.108307045215554" data-palette-color="#323660"><path d="M17.4 0L12.8 0Q12.3 0 11.95-0.35 11.6-0.7 11.6-1.2L11.6-1.2 11.6-28.85 2.35-28.85Q1.85-28.85 1.5-29.2 1.15-29.55 1.15-30.05L1.15-30.05 1.15-33.75Q1.15-34.3 1.5-34.65 1.85-35 2.35-35L2.35-35 27.85-35Q28.4-35 28.75-34.65 29.1-34.3 29.1-33.75L29.1-33.75 29.1-30.05Q29.1-29.55 28.75-29.2 28.4-28.85 27.85-28.85L27.85-28.85 18.65-28.85 18.65-1.2Q18.65-0.7 18.3-0.35 17.95 0 17.4 0L17.4 0ZM36.35 0L32 0Q31.6 0 31.27-0.3 30.95-0.6 30.95-1.05L30.95-1.05Q30.95-1.25 31.05-1.5L31.05-1.5 43.1-33.75Q43.25-34.25 43.67-34.63 44.1-35 44.85-35L44.85-35 50.3-35Q51.05-35 51.45-34.63 51.85-34.25 52.05-33.75L52.05-33.75 64.1-1.5Q64.15-1.25 64.15-1.05L64.15-1.05Q64.15-0.6 63.85-0.3 63.55 0 63.15 0L63.15 0 58.8 0Q58.1 0 57.77-0.33 57.45-0.65 57.35-0.95L57.35-0.95 55-7.05 40.15-7.05 37.8-0.95Q37.7-0.65 37.37-0.33 37.05 0 36.35 0L36.35 0ZM47.55-28.25L41.9-12.8 53.25-12.8 47.55-28.25ZM74.69 0L69.99 0Q69.49 0 69.14-0.35 68.8-0.7 68.8-1.2L68.8-1.2 68.8-33.8Q68.8-34.3 69.14-34.65 69.49-35 69.99-35L69.99-35 74.69-35Q75.25-35 75.57-34.65 75.89-34.3 75.89-33.8L75.89-33.8 75.89-1.2Q75.89-0.7 75.57-0.35 75.25 0 74.69 0L74.69 0ZM89.34 0L84.94 0Q84.44 0 84.09-0.35 83.74-0.7 83.74-1.2L83.74-1.2 83.74-33.75Q83.74-34.3 84.09-34.65 84.44-35 84.94-35L84.94-35 106.64-35Q107.19-35 107.54-34.65 107.89-34.3 107.89-33.75L107.89-33.75 107.89-30.25Q107.89-29.7 107.54-29.38 107.19-29.05 106.64-29.05L106.64-29.05 90.59-29.05 90.59-19.55 105.64-19.55Q106.19-19.55 106.54-19.2 106.89-18.85 106.89-18.3L106.89-18.3 106.89-14.8Q106.89-14.3 106.54-13.95 106.19-13.6 105.64-13.6L105.64-13.6 90.59-13.6 90.59-1.2Q90.59-0.7 90.24-0.35 89.89 0 89.34 0L89.34 0ZM115.99 0L111.64 0Q111.24 0 110.92-0.3 110.59-0.6 110.59-1.05L110.59-1.05Q110.59-1.25 110.69-1.5L110.69-1.5 122.74-33.75Q122.89-34.25 123.31-34.63 123.74-35 124.49-35L124.49-35 129.94-35Q130.69-35 131.09-34.63 131.49-34.25 131.69-33.75L131.69-33.75 143.74-1.5Q143.79-1.25 143.79-1.05L143.79-1.05Q143.79-0.6 143.49-0.3 143.19 0 142.79 0L142.79 0 138.44 0Q137.74 0 137.41-0.33 137.09-0.65 136.99-0.95L136.99-0.95 134.64-7.05 119.79-7.05 117.44-0.95Q117.34-0.65 117.02-0.33 116.69 0 115.99 0L115.99 0ZM127.19-28.25L121.54-12.8 132.89-12.8 127.19-28.25Z" opacity="1" transform="matrix(1,0,0,1,0,0)" fill="#323660" class="undefined-text-0" data-fill-palette-color="primary" id="text-0"></path></svg></g></svg></g><g transform="matrix(1,0,0,1,36.672,58.22944773922186)"><svg viewBox="0 0 118.656 9.332296164139162" height="9.332296164139162" width="118.656"><g transform="matrix(1,0,0,1,0,0)"><svg width="118.656" viewBox="1 -37.9900016784668 492.5799865722656 38.75" height="9.332296164139162" data-palette-color="#df5155"><path d="M11.06 0L11.06-4.2 14.45-4.2 14.45-33.01 6.01-33.01 6.01-27.25 1-27.25 1-37.01 34.01-37.01 34.01-27.25 29-27.25 29-33.01 19.24-33.01 19.24-4.2 23.05-4.2 23.05 0 11.06 0ZM37.79-33.79L37.79-37.99 45.8-37.99 45.8-22.51 45.94-22.51Q46.63-23.19 47.52-23.79 48.41-24.39 49.39-24.83 50.36-25.27 51.41-25.51 52.46-25.76 53.61-25.76L53.61-25.76Q55.64-25.76 57.27-25.2 58.91-24.63 60.06-23.49 61.2-22.34 61.83-20.54 62.45-18.75 62.45-16.31L62.45-16.31 62.45-4.2 66.26-4.2 66.26 0 54.25 0 54.25-4.2 57.71-4.2 57.71-15.75Q57.71-18.65 56.24-20.15 54.76-21.66 52-21.66L52-21.66Q50.44-21.66 48.83-20.91 47.21-20.17 45.8-19.04L45.8-19.04 45.8-4.2 49.46-4.2 49.46 0 37.45 0 37.45-4.2 41.26-4.2 41.26-33.79 37.79-33.79ZM93.01-12.06L74.8-12.06Q74.8-10.99 74.96-10.1 75.12-9.2 75.41-8.4L75.41-8.4Q76.31-5.96 78.3-4.72 80.29-3.49 82.81-3.49L82.81-3.49Q84.79-3.49 86.65-4.04 88.52-4.59 90.57-5.76L90.57-5.76 92.4-2.66Q89.91-0.95 87.4-0.12 84.88 0.71 82.17 0.71L82.17 0.71Q79.61 0.71 77.42-0.15 75.24-1 73.66-2.69 72.09-4.37 71.2-6.88 70.31-9.4 70.31-12.74L70.31-12.74Q70.31-15.45 71.06-17.86 71.82-20.26 73.32-22.06 74.82-23.85 77.05-24.9 79.27-25.95 82.22-25.95L82.22-25.95Q85.08-25.95 86.99-25.09 88.91-24.22 90.12-22.79 91.33-21.36 91.95-19.53 92.57-17.7 92.82-15.8L92.82-15.8Q92.94-14.87 92.98-13.92 93.01-12.96 93.01-12.06L93.01-12.06ZM81.9-22.14L81.9-22.14Q80.32-22.14 79.13-21.69 77.95-21.24 77.12-20.4 76.29-19.56 75.79-18.33 75.29-17.11 75.04-15.6L75.04-15.6 88.15-15.6Q88.06-17.02 87.7-18.21 87.35-19.41 86.62-20.29 85.88-21.17 84.74-21.66 83.59-22.14 81.9-22.14ZM96.75 0Q96.75 0 96.75 0ZM118.47-29.39L118.47-25.29 124.33-25.29 124.33-21.61 118.47-21.61 118.47-4.2 122.43-4.2 122.43 0 110.12 0 110.12-4.2 113.93-4.2 113.93-21.61 109.76-21.61 109.76-25.29 113.93-25.29 113.93-29.25Q113.98-31.45 114.57-33.08 115.15-34.72 116.23-35.82 117.3-36.91 118.81-37.45 120.33-37.99 122.18-37.99L122.18-37.99Q123.48-37.99 124.5-37.87 125.53-37.74 126.33-37.54 127.14-37.33 127.76-37.08 128.38-36.84 128.87-36.6L128.87-36.6 127.48-33.35Q126.7-33.76 125.44-34.06 124.18-34.35 122.82-34.35L122.82-34.35Q120.79-34.35 119.63-33.09 118.47-31.84 118.47-29.39L118.47-29.39ZM146.5-25.44L146.5-19.95 141.86-19.95 141.86-21.51Q141.05-21.51 140.21-21.2 139.37-20.9 138.63-20.28 137.9-19.65 137.35-18.69 136.8-17.72 136.56-16.41L136.56-16.41 136.56-4.2 140.86-4.2 140.86 0 128.31 0 128.31-4.2 131.8-4.2 131.82-21.09 128.31-21.09 128.31-25.29 136.39-25.29 136.39-21.8Q136.83-22.58 137.38-23.25 137.93-23.93 138.6-24.43 139.27-24.93 140.09-25.21 140.91-25.49 141.86-25.49L141.86-25.49Q143.13-25.49 144.25-25.49 145.37-25.49 146.5-25.44L146.5-25.44ZM174.25-12.06L156.04-12.06Q156.04-10.99 156.2-10.1 156.36-9.2 156.65-8.4L156.65-8.4Q157.55-5.96 159.54-4.72 161.53-3.49 164.05-3.49L164.05-3.49Q166.03-3.49 167.89-4.04 169.76-4.59 171.81-5.76L171.81-5.76 173.64-2.66Q171.15-0.95 168.64-0.12 166.12 0.71 163.41 0.71L163.41 0.71Q160.85 0.71 158.66-0.15 156.48-1 154.9-2.69 153.33-4.37 152.44-6.88 151.55-9.4 151.55-12.74L151.55-12.74Q151.55-15.45 152.3-17.86 153.06-20.26 154.56-22.06 156.06-23.85 158.29-24.9 160.51-25.95 163.46-25.95L163.46-25.95Q166.32-25.95 168.23-25.09 170.15-24.22 171.36-22.79 172.57-21.36 173.19-19.53 173.81-17.7 174.06-15.8L174.06-15.8Q174.18-14.87 174.22-13.92 174.25-12.96 174.25-12.06L174.25-12.06ZM163.14-22.14L163.14-22.14Q161.56-22.14 160.37-21.69 159.19-21.24 158.36-20.4 157.53-19.56 157.03-18.33 156.53-17.11 156.28-15.6L156.28-15.6 169.39-15.6Q169.3-17.02 168.94-18.21 168.59-19.41 167.86-20.29 167.12-21.17 165.98-21.66 164.83-22.14 163.14-22.14ZM195.03-18.51Q195.03-19.53 194.55-20.25 194.07-20.97 193.32-21.42 192.56-21.88 191.63-22.08 190.71-22.29 189.83-22.29L189.83-22.29Q188.85-22.29 188.03-22.07 187.21-21.85 186.63-21.44 186.04-21.02 185.71-20.42 185.38-19.82 185.38-19.09L185.38-19.09Q185.38-17.82 186.15-17.08 186.92-16.33 188.73-15.7L188.73-15.7 193.59-13.99Q196.71-12.94 198.15-11.13 199.59-9.33 199.59-6.81L199.59-6.81Q199.59-5.13 198.92-3.72 198.25-2.32 197.02-1.33 195.78-0.34 194.05 0.21 192.32 0.76 190.19 0.76L190.19 0.76Q187.24 0.76 185.38-0.2 183.53-1.15 182.53-2.71L182.53-2.71 179.99-2.71 179.99-6.91 185.04-6.91Q185.04-5.86 185.49-5.11 185.94-4.37 186.69-3.91 187.43-3.44 188.37-3.22 189.31-3 190.29-3L190.29-3Q191.24-3 192.12-3.23 193-3.47 193.67-3.92 194.34-4.37 194.73-5 195.12-5.64 195.12-6.45L195.12-6.45Q195.12-7.67 194.33-8.52 193.54-9.38 191.63-10.06L191.63-10.06 186.8-11.87Q183.84-12.92 182.42-14.54 180.99-16.16 180.99-18.6L180.99-18.6Q180.99-20.21 181.59-21.58 182.18-22.95 183.32-23.94 184.46-24.93 186.09-25.49 187.73-26.05 189.83-26.05L189.83-26.05Q192.54-26.05 194.37-25.29 196.2-24.54 197.66-22.71L197.66-22.71 200.03-22.71 200.03-18.51 195.03-18.51ZM205.01-33.79L205.01-37.99 213.02-37.99 213.02-22.51 213.16-22.51Q213.85-23.19 214.74-23.79 215.63-24.39 216.61-24.83 217.58-25.27 218.63-25.51 219.68-25.76 220.83-25.76L220.83-25.76Q222.86-25.76 224.49-25.2 226.13-24.63 227.27-23.49 228.42-22.34 229.04-20.54 229.67-18.75 229.67-16.31L229.67-16.31 229.67-4.2 233.48-4.2 233.48 0 221.46 0 221.46-4.2 224.93-4.2 224.93-15.75Q224.93-18.65 223.45-20.15 221.98-21.66 219.22-21.66L219.22-21.66Q217.66-21.66 216.04-20.91 214.43-20.17 213.02-19.04L213.02-19.04 213.02-4.2 216.68-4.2 216.68 0 204.67 0 204.67-4.2 208.48-4.2 208.48-33.79 205.01-33.79ZM260.23-12.06L242.02-12.06Q242.02-10.99 242.18-10.1 242.34-9.2 242.63-8.4L242.63-8.4Q243.53-5.96 245.52-4.72 247.51-3.49 250.03-3.49L250.03-3.49Q252-3.49 253.87-4.04 255.74-4.59 257.79-5.76L257.79-5.76 259.62-2.66Q257.13-0.95 254.62-0.12 252.1 0.71 249.39 0.71L249.39 0.71Q246.83 0.71 244.64-0.15 242.46-1 240.88-2.69 239.31-4.37 238.42-6.88 237.53-9.4 237.53-12.74L237.53-12.74Q237.53-15.45 238.28-17.86 239.04-20.26 240.54-22.06 242.04-23.85 244.26-24.9 246.49-25.95 249.44-25.95L249.44-25.95Q252.3-25.95 254.21-25.09 256.13-24.22 257.34-22.79 258.55-21.36 259.17-19.53 259.79-17.7 260.04-15.8L260.04-15.8Q260.16-14.87 260.19-13.92 260.23-12.96 260.23-12.06L260.23-12.06ZM249.12-22.14L249.12-22.14Q247.54-22.14 246.35-21.69 245.17-21.24 244.34-20.4 243.51-19.56 243.01-18.33 242.51-17.11 242.26-15.6L242.26-15.6 255.37-15.6Q255.28-17.02 254.92-18.21 254.57-19.41 253.83-20.29 253.1-21.17 251.96-21.66 250.81-22.14 249.12-22.14ZM281.01-18.51Q281.01-19.53 280.53-20.25 280.05-20.97 279.3-21.42 278.54-21.88 277.61-22.08 276.68-22.29 275.81-22.29L275.81-22.29Q274.83-22.29 274.01-22.07 273.19-21.85 272.61-21.44 272.02-21.02 271.69-20.42 271.36-19.82 271.36-19.09L271.36-19.09Q271.36-17.82 272.13-17.08 272.9-16.33 274.71-15.7L274.71-15.7 279.56-13.99Q282.69-12.94 284.13-11.13 285.57-9.33 285.57-6.81L285.57-6.81Q285.57-5.13 284.9-3.72 284.23-2.32 283-1.33 281.76-0.34 280.03 0.21 278.3 0.76 276.17 0.76L276.17 0.76Q273.22 0.76 271.36-0.2 269.51-1.15 268.51-2.71L268.51-2.71 265.97-2.71 265.97-6.91 271.02-6.91Q271.02-5.86 271.47-5.11 271.92-4.37 272.67-3.91 273.41-3.44 274.35-3.22 275.29-3 276.27-3L276.27-3Q277.22-3 278.1-3.23 278.98-3.47 279.65-3.92 280.32-4.37 280.71-5 281.1-5.64 281.1-6.45L281.1-6.45Q281.1-7.67 280.31-8.52 279.52-9.38 277.61-10.06L277.61-10.06 272.78-11.87Q269.82-12.92 268.4-14.54 266.97-16.16 266.97-18.6L266.97-18.6Q266.97-20.21 267.57-21.58 268.16-22.95 269.3-23.94 270.43-24.93 272.07-25.49 273.71-26.05 275.81-26.05L275.81-26.05Q278.52-26.05 280.35-25.29 282.18-24.54 283.64-22.71L283.64-22.71 286.01-22.71 286.01-18.51 281.01-18.51ZM297.97-33.45L297.97-25.29 303.9-25.29 303.9-21.61 297.92-21.61 297.85-7.01Q297.85-5.52 298.19-4.59 298.53-3.66 299.29-3.31 300.05-2.95 301-2.95L301-2.95Q302.02-2.95 302.8-3.14 303.59-3.32 304.51-3.76L304.51-3.76 305.56-0.71Q304.39-0.1 303.1 0.26 301.8 0.61 300.05 0.61L300.05 0.61Q298.39 0.61 297.15 0.21 295.92-0.2 295.08-1.15 294.24-2.1 293.82-3.7 293.41-5.3 293.41-7.69L293.41-7.69 293.48-21.61 289.45-21.61 289.45-25.29 293.53-25.29 293.53-31.35 297.97-33.45ZM306.81 0Q306.81 0 306.81 0ZM343.03-18.55L338.44-18.55Q337.42-20.39 335.84-21.24 334.27-22.09 332.19-22.09L332.19-22.09Q330.61-22.09 329.22-21.44 327.82-20.78 326.79-19.56 325.75-18.33 325.15-16.59 324.55-14.84 324.55-12.7L324.55-12.7Q324.55-10.57 325.15-8.86 325.75-7.15 326.8-5.94 327.85-4.74 329.23-4.09 330.61-3.44 332.19-3.44L332.19-3.44Q334.54-3.44 336.27-4.58 338-5.71 339.03-7.91L339.03-7.91 342.79-6.05Q342.06-4.49 340.98-3.25 339.91-2 338.55-1.12 337.2-0.24 335.58 0.23 333.95 0.71 332.15 0.71L332.15 0.71Q329.51 0.71 327.27-0.28 325.04-1.27 323.42-3.05 321.79-4.83 320.89-7.3 319.99-9.77 319.99-12.7L319.99-12.7Q319.99-15.63 320.94-18.09 321.89-20.56 323.55-22.33 325.21-24.1 327.43-25.1 329.66-26.1 332.19-26.1L332.19-26.1Q334.59-26.1 336.72-25.27 338.86-24.44 340.47-22.75L340.47-22.75 343.03-22.75 343.03-18.55ZM347.28-33.79L347.28-37.99 355.48-37.99 355.48-4.2 359.29-4.2 359.29 0 347.28 0 347.28-4.2 350.94-4.2 350.94-33.79 347.28-33.79ZM363.39-12.65L363.39-12.65Q363.41-15.65 364.35-18.12 365.29-20.58 366.98-22.35 368.66-24.12 370.98-25.07 373.3-26.03 376.09-26.03L376.09-26.03Q378.89-26.03 381.22-25.07 383.56-24.12 385.22-22.38 386.88-20.63 387.8-18.16 388.73-15.7 388.73-12.7L388.73-12.7Q388.73-9.74 387.8-7.26 386.88-4.79 385.22-3 383.56-1.22 381.22-0.23 378.89 0.76 376.09 0.76L376.09 0.76Q373.23 0.76 370.91-0.22 368.59-1.2 366.93-2.97 365.27-4.74 364.34-7.2 363.41-9.67 363.39-12.65ZM368.2-12.65L368.2-12.65Q368.2-10.47 368.82-8.72 369.44-6.96 370.53-5.73 371.62-4.49 373.05-3.82 374.47-3.15 376.09-3.15L376.09-3.15Q377.77-3.15 379.22-3.81 380.68-4.47 381.75-5.7 382.82-6.93 383.43-8.69 384.04-10.45 384.04-12.65L384.04-12.65Q384.04-14.94 383.43-16.72 382.82-18.51 381.76-19.7 380.7-20.9 379.23-21.51 377.77-22.12 376.09-22.12L376.09-22.12Q374.47-22.12 373.05-21.51 371.62-20.9 370.53-19.7 369.44-18.51 368.82-16.72 368.2-14.94 368.2-12.65ZM400.96-33.45L400.96-25.29 406.89-25.29 406.89-21.61 400.91-21.61 400.84-7.01Q400.84-5.52 401.18-4.59 401.52-3.66 402.28-3.31 403.04-2.95 403.99-2.95L403.99-2.95Q405.01-2.95 405.79-3.14 406.58-3.32 407.5-3.76L407.5-3.76 408.55-0.71Q407.38-0.1 406.09 0.26 404.79 0.61 403.04 0.61L403.04 0.61Q401.38 0.61 400.14 0.21 398.91-0.2 398.07-1.15 397.23-2.1 396.81-3.7 396.4-5.3 396.4-7.69L396.4-7.69 396.47-21.61 392.44-21.61 392.44-25.29 396.52-25.29 396.52-31.35 400.96-33.45ZM412.58-33.79L412.58-37.99 420.59-37.99 420.59-22.51 420.73-22.51Q421.42-23.19 422.31-23.79 423.2-24.39 424.18-24.83 425.15-25.27 426.2-25.51 427.25-25.76 428.4-25.76L428.4-25.76Q430.43-25.76 432.06-25.2 433.7-24.63 434.85-23.49 435.99-22.34 436.62-20.54 437.24-18.75 437.24-16.31L437.24-16.31 437.24-4.2 441.05-4.2 441.05 0 429.03 0 429.03-4.2 432.5-4.2 432.5-15.75Q432.5-18.65 431.02-20.15 429.55-21.66 426.79-21.66L426.79-21.66Q425.23-21.66 423.61-20.91 422-20.17 420.59-19.04L420.59-19.04 420.59-4.2 424.25-4.2 424.25 0 412.24 0 412.24-4.2 416.05-4.2 416.05-33.79 412.58-33.79ZM467.8-12.06L449.59-12.06Q449.59-10.99 449.75-10.1 449.91-9.2 450.2-8.4L450.2-8.4Q451.1-5.96 453.09-4.72 455.08-3.49 457.6-3.49L457.6-3.49Q459.57-3.49 461.44-4.04 463.31-4.59 465.36-5.76L465.36-5.76 467.19-2.66Q464.7-0.95 462.19-0.12 459.67 0.71 456.96 0.71L456.96 0.71Q454.4 0.71 452.21-0.15 450.03-1 448.45-2.69 446.88-4.37 445.99-6.88 445.1-9.4 445.1-12.74L445.1-12.74Q445.1-15.45 445.85-17.86 446.61-20.26 448.11-22.06 449.61-23.85 451.83-24.9 454.06-25.95 457.01-25.95L457.01-25.95Q459.87-25.95 461.78-25.09 463.7-24.22 464.91-22.79 466.12-21.36 466.74-19.53 467.36-17.7 467.61-15.8L467.61-15.8Q467.73-14.87 467.77-13.92 467.8-12.96 467.8-12.06L467.8-12.06ZM456.69-22.14L456.69-22.14Q455.11-22.14 453.92-21.69 452.74-21.24 451.91-20.4 451.08-19.56 450.58-18.33 450.08-17.11 449.83-15.6L449.83-15.6 462.94-15.6Q462.85-17.02 462.49-18.21 462.14-19.41 461.41-20.29 460.67-21.17 459.53-21.66 458.38-22.14 456.69-22.14ZM488.58-18.51Q488.58-19.53 488.1-20.25 487.62-20.97 486.87-21.42 486.11-21.88 485.18-22.08 484.25-22.29 483.38-22.29L483.38-22.29Q482.4-22.29 481.58-22.07 480.76-21.85 480.18-21.44 479.59-21.02 479.26-20.42 478.93-19.82 478.93-19.09L478.93-19.09Q478.93-17.82 479.7-17.08 480.47-16.33 482.28-15.7L482.28-15.7 487.14-13.99Q490.26-12.94 491.7-11.13 493.14-9.33 493.14-6.81L493.14-6.81Q493.14-5.13 492.47-3.72 491.8-2.32 490.57-1.33 489.33-0.34 487.6 0.21 485.87 0.76 483.74 0.76L483.74 0.76Q480.79 0.76 478.93-0.2 477.08-1.15 476.08-2.71L476.08-2.71 473.54-2.71 473.54-6.91 478.59-6.91Q478.59-5.86 479.04-5.11 479.49-4.37 480.24-3.91 480.98-3.44 481.92-3.22 482.86-3 483.84-3L483.84-3Q484.79-3 485.67-3.23 486.55-3.47 487.22-3.92 487.89-4.37 488.28-5 488.67-5.64 488.67-6.45L488.67-6.45Q488.67-7.67 487.88-8.52 487.09-9.38 485.18-10.06L485.18-10.06 480.35-11.87Q477.39-12.92 475.97-14.54 474.54-16.16 474.54-18.6L474.54-18.6Q474.54-20.21 475.14-21.58 475.73-22.95 476.87-23.94 478-24.93 479.64-25.49 481.28-26.05 483.38-26.05L483.38-26.05Q486.09-26.05 487.92-25.29 489.75-24.54 491.21-22.71L491.21-22.71 493.58-22.71 493.58-18.51 488.58-18.51Z" opacity="1" transform="matrix(1,0,0,1,0,0)" fill="#df5155" class="undefined-text-1" data-fill-palette-color="secondary" id="text-1"></path></svg></g></svg></g></svg></g></svg></g><g transform="matrix(1,0,0,1,62.6661324998211,0)"><svg viewBox="0 0 67.62773500035777 93.37033007444494" height="93.37033007444494" width="67.62773500035777"><g><svg xmlns="http://www.w3.org/2000/svg" xmlnsXlink="http://www.w3.org/1999/xlink" xmlSpace="preserve" style="shape-renderingGeometricPrecision;text-renderingGeometricPrecision;image-renderingOptimizeQuality;" viewBox="0.0000016316771507263184 0.0000020274892449378967 1.2282825708389282 1.6958301067352295" x="0" y="0" fill-rule="evenodd" clip-rule="evenodd" width="67.62773500035777" height="93.37033007444494" class="icon-icon-0" data-fill-palette-color="accent" id="icon-0"><g fill="#fc2222" data-fill-palette-color="accent"><path class="" d="M0.885 0.033c0.007-0.009 0.006-0.021-0.002-0.028-0.009-0.007-0.021-0.006-0.028 0.002-0.203 0.241-0.332 0.501-0.409 0.775-0.073 0.259-0.1 0.53-0.102 0.808-0.069 0.004-0.162 0.009-0.246 0.016-0.126 0.011-0.134 0.01-0.004 0.037 0.325 0.067 0.74 0.076 1.06-0.002 0.102-0.025 0.097-0.022-0.002-0.034-0.245-0.027-0.55-0.031-0.768-0.019 0.002-0.273 0.029-0.54 0.101-0.795 0.076-0.269 0.202-0.524 0.4-0.76z m0.194 1.29c0.008-0.136 0.012-0.268 0.011-0.394l-0.617 0.261c-0.014 0.115-0.022 0.233-0.025 0.355 0.203-0.104 0.41-0.191 0.631-0.222z m0-0.633c-0.002-0.029-0.005-0.058-0.009-0.086l-0.531 0.225c-0.009 0.036-0.018 0.072-0.025 0.108l0.565-0.247z m-0.017-0.148c-0.025-0.175-0.067-0.33-0.131-0.458-0.178 0.188-0.298 0.418-0.374 0.68l0.505-0.222z" fill="#fc2222" fill-rule="nonzero" data-fill-palette-color="accent"></path></g></svg></g></svg></g><g></g></svg></g></svg></g></svg></g></svg><rect width="320" height="360" fill="none" stroke="none" visibility="hidden"></rect></g></svg></g></svg>